<?xml version="1.0" encoding="iso-8859-1"?>
<!-- Generator: Adobe Illustrator 19.0.0, SVG Export Plug-In . SVG Version: 6.00 Build 0)  -->
<svg version="1.1" id="Capa_1" xmlns="http://www.w3.org/2000/svg" xmlns:xlink="http://www.w3.org/1999/xlink" x="0px" y="0px"
	 viewBox="0 0 512 512" style="enable-background:new 0 0 512 512;" xml:space="preserve">
<linearGradient id="SVGID_1_" gradientUnits="userSpaceOnUse" x1="1.987452e-004" y1="258" x2="511.9998" y2="258" gradientTransform="matrix(1 0 0 -1 0 514)">
	<stop  offset="0" style="stop-color:#00F2FE"/>
	<stop  offset="0.021" style="stop-color:#03EFFE"/>
	<stop  offset="0.293" style="stop-color:#24D2FE"/>
	<stop  offset="0.554" style="stop-color:#3CBDFE"/>
	<stop  offset="0.796" style="stop-color:#4AB0FE"/>
	<stop  offset="1" style="stop-color:#4FACFE"/>
</linearGradient>
<path style="fill:url(#SVGID_1_);" d="M481.996,30.006C462.647,10.656,436.922,0,409.559,0s-53.088,10.656-72.437,30.005
	L50.826,316.301c-2.436,2.436-4.202,5.46-5.125,8.779L0.733,486.637c-1.939,6.968,0.035,14.441,5.163,19.542
	c3.8,3.78,8.892,5.821,14.106,5.821c1.823,0,3.661-0.25,5.463-0.762l161.557-45.891c6.817-1.936,12.1-7.335,13.888-14.192
	s-0.186-14.148-5.189-19.167L93.869,329.827l180.228-180.228l88.18,88.18L237.769,361.948c-7.821,7.8-7.839,20.463-0.039,28.284
	c7.8,7.822,20.463,7.837,28.284,0.039l215.981-215.392C501.344,155.53,512,129.805,512,102.442S501.344,49.353,481.996,30.006z
	 M143.395,436.158L48.827,463.02l26.485-95.152L143.395,436.158z M302.381,121.315l28.716-28.716l88.258,88.258L390.6,209.534
	L302.381,121.315z M453.73,146.575l-6.053,6.037l-88.296-88.296l6.026-6.026C377.2,46.495,392.88,40,409.559,40
	c16.678,0,32.358,6.495,44.153,18.29C465.505,70.083,472,85.764,472,102.442C472,119.121,465.505,134.8,453.73,146.575z"/>
<g>
</g>
<g>
</g>
<g>
</g>
<g>
</g>
<g>
</g>
<g>
</g>
<g>
</g>
<g>
</g>
<g>
</g>
<g>
</g>
<g>
</g>
<g>
</g>
<g>
</g>
<g>
</g>
<g>
</g>
</svg>
