<?xml version="1.0" encoding="iso-8859-1"?>
<!-- Generator: Adobe Illustrator 19.0.0, SVG Export Plug-In . SVG Version: 6.00 Build 0)  -->
<svg version="1.1" id="Capa_1" xmlns="http://www.w3.org/2000/svg" xmlns:xlink="http://www.w3.org/1999/xlink" x="0px" y="0px"
	 viewBox="0 0 512 512" style="enable-background:new 0 0 512 512;" xml:space="preserve">
<linearGradient id="SVGID_1_" gradientUnits="userSpaceOnUse" x1="61" y1="258" x2="451" y2="258" gradientTransform="matrix(1 0 0 -1 0 514)">
	<stop  offset="0" style="stop-color:#00F2FE"/>
	<stop  offset="0.021" style="stop-color:#03EFFE"/>
	<stop  offset="0.293" style="stop-color:#24D2FE"/>
	<stop  offset="0.554" style="stop-color:#3CBDFE"/>
	<stop  offset="0.796" style="stop-color:#4AB0FE"/>
	<stop  offset="1" style="stop-color:#4FACFE"/>
</linearGradient>
<path style="fill:url(#SVGID_1_);" d="M391,512H121c-33.084,0-60-26.916-60-60v-31c0-51.519,58.308-100.533,100.883-136.322
	c5.772-4.852,11.223-9.434,15.99-13.581c4.53-3.941,7.127-9.443,7.127-15.096c0-5.654-2.598-11.156-7.127-15.097
	c-4.767-4.147-10.218-8.729-15.99-13.581C119.308,191.533,61,142.519,61,91V60c0-33.084,26.916-60,60-60h270
	c33.084,0,60,26.916,60,60v31c0,51.519-58.308,100.533-100.883,136.322c-5.772,4.852-11.223,9.434-15.99,13.581
	C329.598,244.844,327,250.347,327,256c0,5.653,2.598,11.155,7.127,15.096c4.946,4.303,10.637,9.066,16.661,14.109
	c19.512,16.333,43.796,36.659,63.179,58.529c7.326,8.267,6.564,20.907-1.702,28.233c-8.267,7.326-20.907,6.564-28.233-1.702
	c-17.407-19.64-39.46-38.1-58.918-54.387c-6.175-5.169-12.007-10.051-17.242-14.604C294.608,289.734,287,273.232,287,256
	s7.608-33.734,20.873-45.275c5.023-4.37,10.601-9.059,16.506-14.022C356.776,169.469,411,123.888,411,91V60c0-11.028-8.972-20-20-20
	H121c-11.028,0-20,8.972-20,20v31c0,32.888,54.224,78.469,86.622,105.703c5.905,4.964,11.483,9.653,16.506,14.022
	C217.392,222.266,225,238.768,225,256c0,17.231-7.608,33.733-20.873,45.274c-5.023,4.37-10.601,9.059-16.506,14.022
	C155.224,342.531,101,388.112,101,421v31c0,11.028,8.972,20,20,20h270c11.028,0,20-8.972,20-20c0-11.046,8.954-20,20-20
	s20,8.954,20,20C451,485.084,424.084,512,391,512z M337.918,429c14.866,0,22.622-17.699,12.506-28.583
	c-0.166-0.178-0.333-0.358-0.501-0.538c-15.212-16.263-72.47-64.578-73.207-65.211c-11.922-10.225-29.509-10.225-41.43,0
	c-0.737,0.632-57.995,48.948-73.207,65.211c-0.168,0.18-0.336,0.359-0.501,0.538C151.46,411.301,159.216,429,174.082,429H337.918z
	 M217.899,127c-16.517,0-24.187,20.84-11.728,31.863c15.897,14.066,29.858,26.057,30.219,26.372
	c11.861,10.353,29.358,10.353,41.22,0c0.361-0.315,14.322-12.307,30.219-26.372C320.288,147.84,312.618,127,296.101,127H217.899z"/>
<g>
</g>
<g>
</g>
<g>
</g>
<g>
</g>
<g>
</g>
<g>
</g>
<g>
</g>
<g>
</g>
<g>
</g>
<g>
</g>
<g>
</g>
<g>
</g>
<g>
</g>
<g>
</g>
<g>
</g>
</svg>
