<?xml version="1.0" encoding="iso-8859-1"?>
<!-- Generator: Adobe Illustrator 21.0.0, SVG Export Plug-In . SVG Version: 6.00 Build 0)  -->
<svg version="1.1" id="Capa_1" xmlns="http://www.w3.org/2000/svg" xmlns:xlink="http://www.w3.org/1999/xlink" x="0px" y="0px"
	 viewBox="0 0 512 512" style="enable-background:new 0 0 512 512;" xml:space="preserve">
<linearGradient id="SVGID_1_" gradientUnits="userSpaceOnUse" x1="0" y1="258" x2="512" y2="258" gradientTransform="matrix(1 0 0 -1 0 514)">
	<stop  offset="0" style="stop-color:#00F2FE"/>
	<stop  offset="0.021" style="stop-color:#03EFFE"/>
	<stop  offset="0.293" style="stop-color:#24D2FE"/>
	<stop  offset="0.554" style="stop-color:#3CBDFE"/>
	<stop  offset="0.796" style="stop-color:#4AB0FE"/>
	<stop  offset="1" style="stop-color:#4FACFE"/>
</linearGradient>
<path style="fill:url(#SVGID_1_);" d="M237,366.019v-50h-50c-11.046,0-20-8.954-20-20s8.954-20,20-20h50v-50
	c0-11.046,8.954-20,20-20c11.046,0,20,8.954,20,20v50h50c11.046,0,20,8.954,20,20s-8.954,20-20,20h-50v50c0,11.046-8.954,20-20,20
	S237,377.064,237,366.019z M472,276.019v-96c0-22.056-17.944-40-40-40H80c-22.056,0-40,17.944-40,40v96h67c11.046,0,20,8.954,20,20
	s-8.954,20-20,20H40v97c0,22.056,17.944,40,40,40h352c22.056,0,40-17.944,40-40v-17c0-11.046,8.954-20,20-20s20,8.954,20,20v17
	c0,44.112-35.888,80-80,80H80c-44.112,0-80-35.888-80-80v-233c0-44.112,35.888-80,80-80h86.074V73.944
	c0-30.307,24.656-54.963,54.963-54.963h69.926c30.307,0,54.963,24.656,54.963,54.963v26.074H432c44.112,0,80,35.888,80,80v116
	c0,11.046-8.954,20-20,20c-1.37,0-2.708-0.139-4-0.402c-1.292,0.262-2.63,0.402-4,0.402h-77c-11.046,0-20-8.954-20-20
	s8.954-20,20-20h65V276.019z M206.074,100.019h99.852V73.944c0-8.25-6.712-14.963-14.963-14.963h-69.926
	c-8.25,0-14.963,6.712-14.963,14.963L206.074,100.019L206.074,100.019z"/>
<g>
</g>
<g>
</g>
<g>
</g>
<g>
</g>
<g>
</g>
<g>
</g>
<g>
</g>
<g>
</g>
<g>
</g>
<g>
</g>
<g>
</g>
<g>
</g>
<g>
</g>
<g>
</g>
<g>
</g>
</svg>
