<?xml version="1.0" encoding="iso-8859-1"?>
<!-- Generator: Adobe Illustrator 19.0.0, SVG Export Plug-In . SVG Version: 6.00 Build 0)  -->
<svg version="1.1" id="Capa_1" xmlns="http://www.w3.org/2000/svg" xmlns:xlink="http://www.w3.org/1999/xlink" x="0px" y="0px"
	 viewBox="0 0 512 512" style="enable-background:new 0 0 512 512;" xml:space="preserve">
<linearGradient id="SVGID_1_" gradientUnits="userSpaceOnUse" x1="21.4834" y1="258" x2="490.5166" y2="258" gradientTransform="matrix(1 0 0 -1 0 514)">
	<stop  offset="0" style="stop-color:#00F2FE"/>
	<stop  offset="0.021" style="stop-color:#03EFFE"/>
	<stop  offset="0.293" style="stop-color:#24D2FE"/>
	<stop  offset="0.554" style="stop-color:#3CBDFE"/>
	<stop  offset="0.796" style="stop-color:#4AB0FE"/>
	<stop  offset="1" style="stop-color:#4FACFE"/>
</linearGradient>
<path style="fill:url(#SVGID_1_);" d="M483.253,139.181c-7.655-16.662-27.143-37.175-76.515-40.276
	c-11.042-0.7-20.522,7.683-21.214,18.707c-0.693,11.024,7.683,20.522,18.707,21.214c22.8,1.433,38.354,7.648,42.676,17.055
	c2.461,5.356,3.762,9.066,3.594,13.33c-0.498,12.588-11.914,32.636-33.973,59.726c-29.461-26.982-65.84-52.352-106.649-74.259
	c-40.599-21.795-80.712-35.724-111.993-45.49c1.55-4.168,3.171-8.224,4.864-12.156C218.119,61.319,237.833,40,255.486,40
	c14.623,0,27.461,14.294,35.656,26.285c6.232,9.12,18.677,11.459,27.797,5.228c9.12-6.232,11.46-18.677,5.228-27.797
	C299.474,7.584,273.189,0,255.486,0c-35.16,0-66.938,28.843-89.479,81.216c-2.585,6.005-5.02,12.253-7.305,18.714
	c-37.738-5.737-67.391-1.766-68.982-1.543c-0.13,0.018-0.26,0.038-0.39,0.058c-35.998,5.748-52.171,23.007-59.4,36.473
	c-4.81,8.959-7.315,18.657-7.445,28.826c-0.184,14.337,4.218,30.298,13.081,47.442c5.073,9.812,17.139,13.652,26.952,8.581
	c9.812-5.073,13.653-17.14,8.581-26.952c-5.734-11.09-8.714-20.966-8.616-28.559c0.047-3.727,0.928-7.134,2.691-10.418
	c5.308-9.889,19.289-14.077,30.194-15.85c2.086-0.26,23.995-2.796,52.033,0.765c-8.433,35.793-12.916,75.836-12.916,117.247
	c0,42.712,6.751,82.458,13.808,114.724c-4.14,0.584-8.219,1.071-12.222,1.449c-37.463,3.531-65.279-3.071-72.593-17.233
	c-1.306-2.528-1.958-5.833-1.993-10.105c-0.047-5.676,1.104-11.633,3.42-17.704c3.938-10.32-1.235-21.878-11.555-25.816
	c-10.318-3.937-21.878,1.235-25.816,11.555c-4.102,10.748-6.137,21.614-6.048,32.296c0.089,10.694,2.199,19.896,6.452,28.129
	c13.436,26.016,44.646,39.825,89.001,39.825c7.28,0,14.919-0.373,22.887-1.124c6.063-0.572,12.267-1.358,18.586-2.343
	c11.862,35.691,27.85,58.039,30.12,61.107c24.241,34.077,49.783,41.24,66.954,41.24c17.702,0,43.987-7.584,68.68-43.714
	c6.232-9.12,3.892-21.565-5.227-27.797s-21.564-3.891-27.797,5.227C282.947,457.707,270.109,472,255.486,472
	c-14.083,0-26.514-13.361-34.462-24.569c-0.123-0.173-0.248-0.343-0.375-0.512c-0.156-0.206-12.708-16.998-22.836-45.627
	c35.517-9.4,73.247-24.128,110.35-43.29c39.327-20.311,75.724-44.547,105.257-70.09c0.889-0.769,1.676-1.61,2.395-2.49
	c20.453,23.884,31.877,46.199,31.67,62.322c-0.066,5.155-0.586,8.368-1.687,10.418c-5.353,9.971-19.522,14.146-30.467,15.894
	c-10.907,1.741-18.338,11.995-16.597,22.903c1.571,9.84,10.068,16.851,19.726,16.85c1.047,0,2.11-0.083,3.177-0.253
	c36.001-5.747,52.175-23.007,59.405-36.475c5.513-10.27,6.338-20.799,6.441-28.824c0.344-26.844-14.408-57.989-42.779-90.585
	c30.982-37.356,44.858-63.936,45.765-86.881C490.978,157.919,487.302,147.991,483.253,139.181z M203.702,153.096
	c-0.359,0.185-0.72,0.365-1.079,0.55c-6.696,3.458-13.312,7.036-19.828,10.712c1.097-5.73,2.304-11.348,3.609-16.851
	C191.904,149.227,197.691,151.087,203.702,153.096z M184.416,348.023c5.497,3.175,11.057,6.284,16.678,9.301
	c0.602,0.323,1.206,0.64,1.809,0.961c-5.192,1.587-10.336,3.053-15.424,4.397C186.444,357.956,185.415,353.064,184.416,348.023z
	 M289.809,322.461c-11.728,6.057-23.494,11.631-35.194,16.692c-11.564-5.223-23.193-10.948-34.602-17.073
	c-15.039-8.073-29.641-16.786-43.455-25.907c-1.293-12.998-2.073-26.454-2.073-40.174c0-13.888,0.542-27.573,1.588-40.938
	c14.276-9.15,29.353-17.845,44.905-25.876c11.397-5.886,22.986-11.382,34.528-16.385c11.656,5.069,23.558,10.733,35.453,17.118
	c14.751,7.918,29.007,16.431,42.525,25.349c1.102,13.001,2.001,26.727,2.001,40.732c0,14.241-0.929,28.195-2.056,41.39
	C319.547,306.233,304.93,314.652,289.809,322.461z M375.301,267.576c0.111-3.819,0.184-7.672,0.184-11.576
	c0-3.314-0.057-6.588-0.139-9.841c4.362,3.617,8.578,7.263,12.638,10.928c-0.243,0.191-0.494,0.365-0.73,0.57
	C383.401,260.989,379.404,264.295,375.301,267.576z M336.484,97c11.046,0,20,8.954,20,20s-8.954,20-20,20s-20-8.954-20-20
	S325.439,97,336.484,97z M65.484,263c0-11.046,8.954-20,20-20s20,8.954,20,20c0,11.046-8.954,20-20,20S65.484,274.046,65.484,263z
	 M360.484,393c0,11.046-8.954,20-20,20s-20-8.954-20-20s8.954-20,20-20S360.484,381.954,360.484,393z"/>
<g>
</g>
<g>
</g>
<g>
</g>
<g>
</g>
<g>
</g>
<g>
</g>
<g>
</g>
<g>
</g>
<g>
</g>
<g>
</g>
<g>
</g>
<g>
</g>
<g>
</g>
<g>
</g>
<g>
</g>
</svg>
