<svg id="Layer_1" enable-background="new 0 0 512.011 512.011" height="512" viewBox="0 0 512.011 512.011" width="512" xmlns="http://www.w3.org/2000/svg" xmlns:xlink="http://www.w3.org/1999/xlink"><linearGradient id="SVGID_1_" gradientUnits="userSpaceOnUse" x1="0" x2="512.011" y1="256.006" y2="256.006"><stop offset="0" stop-color="#00f2fe"/><stop offset=".0208" stop-color="#03effe"/><stop offset=".2931" stop-color="#24d2fe"/><stop offset=".5538" stop-color="#3cbdfe"/><stop offset=".7956" stop-color="#4ab0fe"/><stop offset="1" stop-color="#4facfe"/></linearGradient><path d="m179.315 473.548c-5.167-24.555-20.143-45.163-40.25-58.067 6.88-9.762 10.938-21.65 10.938-34.475 0-33.084-26.916-60-60-60s-60 26.916-60 60c0 12.824 4.058 24.712 10.938 34.475-20.107 12.904-35.083 33.512-40.25 58.065-1.986 9.437.359 19.145 6.438 26.634 6.098 7.516 15.16 11.826 24.863 11.826h116.023c9.703 0 18.766-4.311 24.863-11.826 6.078-7.489 8.424-17.197 6.438-26.634v.002zm-109.312-92.542c0-11.028 8.972-20 20-20s20 8.972 20 20-8.972 20-20 20-20-8.972-20-20zm-27.007 91c8.071-18.213 26.759-31 47.007-31s38.936 12.787 47.007 31zm468.319.881c-2.275-10.811-12.884-17.726-23.69-15.452-7.688 1.618-13.406 7.449-15.25 14.571h-97.379c8.07-18.215 26.757-31 47.007-31 33.084 0 60-26.916 60-60s-26.916-60-60-60-60 26.916-60 60c0 12.824 4.058 24.712 10.938 34.474-20.107 12.904-35.083 33.511-40.25 58.066-1.986 9.437.36 19.145 6.438 26.635 6.098 7.515 15.16 11.825 24.863 11.825h116.023c9.536 0 18.514-4.323 24.631-11.861 6.26-7.716 8.691-17.652 6.669-27.258zm-109.312-91.881c0-11.028 8.972-20 20-20s20 8.972 20 20-8.972 20-20 20-20-8.972-20-20zm-55.991-53.521-14.209-22.972c-.055-.09-.11-.179-.167-.267 2.583-4.85 4.704-9.965 6.307-15.216l26.14-5.445c9.274-1.933 15.921-10.106 15.921-19.58s-6.646-17.647-15.921-19.58l-26.14-5.445c-1.599-5.241-3.718-10.354-6.306-15.217l14.16-21.897c5.12-7.917 4.016-18.336-2.652-25.003-6.666-6.667-17.083-7.771-25.003-2.652l-21.897 14.162c-4.849-2.583-9.965-4.705-15.216-6.308l-5.445-26.139c-1.933-9.275-10.106-15.921-19.58-15.921s-17.647 6.646-19.58 15.921l-5.445 26.139c-5.239 1.599-10.351 3.716-15.215 6.305l-22.719-15.042c-7.929-5.249-18.459-4.19-25.183 2.534-6.725 6.724-7.784 17.254-2.534 25.183l15.042 22.72c-2.582 4.847-4.703 9.962-6.306 15.214l-26.14 5.445c-9.274 1.932-15.921 10.106-15.921 19.58s6.646 17.647 15.921 19.58l26.14 5.445c1.599 5.238 3.717 10.351 6.305 15.215l-15.041 22.719c-5.25 7.93-4.19 18.459 2.533 25.184 6.725 6.723 17.253 7.782 25.184 2.533l22.72-15.042c4.849 2.583 9.964 4.703 15.214 6.306l5.445 26.14c1.933 9.274 10.106 15.921 19.58 15.921s17.647-6.646 19.58-15.921l5.445-26.14c5.235-1.598 10.343-3.713 15.204-6.3l21.388 14.805c7.787 5.391 18.287 4.58 25.156-1.942 6.867-6.522 8.217-16.967 3.235-25.022zm-46.314-50.175c-.854 2.812-1.993 5.558-3.381 8.158-2.43 4.55-3.917 9.432-4.472 14.379-4.947.556-9.829 2.042-14.377 4.471-2.604 1.39-5.35 2.528-8.161 3.383-4.925 1.496-9.42 3.894-13.305 6.994-3.885-3.101-8.38-5.497-13.305-6.994-2.812-.854-5.558-1.993-8.158-3.381-4.549-2.43-9.429-3.916-14.379-4.47-.555-4.947-2.042-9.83-4.471-14.379-1.39-2.604-2.528-5.35-3.383-8.161-1.496-4.925-3.894-9.42-6.993-13.305 3.1-3.885 5.497-8.379 6.993-13.304.855-2.813 1.993-5.559 3.381-8.159 2.429-4.548 3.916-9.429 4.469-14.379 4.947-.555 9.831-2.042 14.38-4.471 2.604-1.39 5.35-2.528 8.161-3.383 4.925-1.497 9.42-3.893 13.305-6.994 3.885 3.101 8.38 5.497 13.305 6.994 2.812.854 5.558 1.993 8.158 3.381 4.55 2.43 9.432 3.917 14.379 4.472.556 4.946 2.042 9.829 4.472 14.377 1.389 2.602 2.526 5.347 3.382 8.16 1.496 4.925 3.894 9.42 6.993 13.305-3.099 3.886-5.496 8.382-6.993 13.306zm-23.695-13.304c0 11.046-8.954 20-20 20s-20-8.954-20-20 8.954-20 20-20 20 8.954 20 20zm77.312-120.54c8.539 7.01 21.141 5.766 28.147-2.772 10.117-12.328 25.272-19.688 40.54-19.688 20.639 0 39.011 12.146 46.994 30h-45.006c-11.046 0-20 8.954-20 20s8.954 20 20 20h56.023c9.703 0 18.766-4.31 24.863-11.826 6.077-7.49 8.424-17.197 6.438-26.633-5.134-24.399-20.264-44.851-40.613-57.557 7.101-9.857 11.301-21.936 11.301-34.984 0-33.084-26.916-60-60-60s-60 26.916-60 60c0 13.144 4.26 25.306 11.456 35.202-8.591 5.373-16.378 12.145-22.916 20.11-7.007 8.538-5.766 21.14 2.773 28.148zm68.688-103.46c11.028 0 20 8.972 20 20s-8.972 20-20 20-20-8.972-20-20 8.972-20 20-20zm-390.013 151h56.024c11.046 0 20-8.954 20-20s-8.954-20-20-20h-45.005c7.983-17.854 26.355-30 46.994-30 15.268 0 30.423 7.36 40.54 19.688 7.006 8.539 19.609 9.78 28.147 2.772 8.539-7.007 9.78-19.609 2.772-28.148-6.537-7.965-14.324-14.737-22.916-20.11 7.196-9.896 11.456-22.058 11.456-35.202 0-33.084-26.916-60-60-60s-60 26.916-60 60c0 13.048 4.2 25.128 11.301 34.984-20.348 12.706-35.479 33.158-40.613 57.556-1.986 9.437.36 19.145 6.438 26.635 6.098 7.515 15.16 11.825 24.862 11.825zm58.013-151c11.028 0 20 8.972 20 20s-8.972 20-20 20-20-8.972-20-20 8.972-20 20-20z" fill="url(#SVGID_1_)"/></svg>