<?xml version="1.0" encoding="iso-8859-1"?>
<!-- Generator: Adobe Illustrator 19.0.0, SVG Export Plug-In . SVG Version: 6.00 Build 0)  -->
<svg version="1.1" id="Capa_1" xmlns="http://www.w3.org/2000/svg" xmlns:xlink="http://www.w3.org/1999/xlink" x="0px" y="0px"
	 viewBox="0 0 512 512" style="enable-background:new 0 0 512 512;" xml:space="preserve">
<linearGradient id="SVGID_1_" gradientUnits="userSpaceOnUse" x1="0" y1="258" x2="512" y2="258" gradientTransform="matrix(1 0 0 -1 0 514)">
	<stop  offset="0" style="stop-color:#00F2FE"/>
	<stop  offset="0.021" style="stop-color:#03EFFE"/>
	<stop  offset="0.293" style="stop-color:#24D2FE"/>
	<stop  offset="0.554" style="stop-color:#3CBDFE"/>
	<stop  offset="0.796" style="stop-color:#4AB0FE"/>
	<stop  offset="1" style="stop-color:#4FACFE"/>
</linearGradient>
<path style="fill:url(#SVGID_1_);" d="M118,99c0,11.046-8.954,20-20,20s-20-8.954-20-20s8.954-20,20-20S118,87.954,118,99z M268,492
	c0,11.046-8.954,20-20,20H80c-44.112,0-80-35.888-80-80v-37c0-23.877,10.528-45.329,27.169-60C10.528,320.329,0,298.877,0,275v-38
	c0-23.877,10.528-45.329,27.169-60C10.528,162.329,0,140.877,0,117V80C0,35.888,35.888,0,80,0h312c44.112,0,80,35.888,80,80v57
	c0,18.305-8.249,34.711-21.214,45.725c4.637,5.029,8.681,10.695,11.976,16.928c5.162,9.765,1.431,21.866-8.335,27.029
	c-9.759,5.161-21.865,1.432-27.028-8.334C420.438,205.18,406.874,197,392,197H193v68c0,11.046-8.954,20-20,20s-20-8.954-20-20v-68
	H80c-22.056,0-40,17.944-40,40v38c0,22.056,17.944,40,40,40h48h84c11.046,0,20,8.954,20,20s-8.954,20-20,20h-19v67
	c0,11.046-8.954,20-20,20s-20-8.954-20-20v-67h-25H80c-22.056,0-40,17.944-40,40v37c0,22.056,17.944,40,40,40h168
	C259.046,472,268,480.954,268,492z M80,157h312h20c11.028,0,20-8.972,20-20V80c0-22.056-17.944-40-40-40H193v67
	c0,11.046-8.954,20-20,20s-20-8.954-20-20V40H80c-22.056,0-40,17.944-40,40v37C40,139.056,57.944,157,80,157z M78,414
	c0,11.046,8.954,20,20,20s20-8.954,20-20s-8.954-20-20-20S78,402.954,78,414z M78,256c0,11.046,8.954,20,20,20s20-8.954,20-20
	c0-11.046-8.954-20-20-20S78,244.954,78,256z M512,307.865v76.161c0,31.284-12.371,63.214-33.94,87.603
	C455.034,497.662,424.916,512,393.253,512h-2.701c-31.663,0-61.781-14.338-84.806-40.372c-21.57-24.389-33.941-56.319-33.941-87.603
	v-76.161c0-7.892,4.641-15.046,11.848-18.263l98.263-43.865c3.248-1.451,6.677-1.964,9.987-1.657
	c3.311-0.306,6.739,0.207,9.987,1.657l98.263,43.865C507.359,292.819,512,299.973,512,307.865z M472,320.839l-80.098-35.756
	l-80.098,35.756v63.187c0,41.528,33.677,87.975,78.747,87.975h2.701c45.07,0,78.747-46.446,78.747-87.975L472,320.839L472,320.839z"
	/>
<g>
</g>
<g>
</g>
<g>
</g>
<g>
</g>
<g>
</g>
<g>
</g>
<g>
</g>
<g>
</g>
<g>
</g>
<g>
</g>
<g>
</g>
<g>
</g>
<g>
</g>
<g>
</g>
<g>
</g>
</svg>
